<svg xmlns="http://www.w3.org/2000/svg" viewBox="0 0 498.14 45.34" preserveAspectRatio="xMinYMax meet"><defs><style>.cls-1{fill:#1d4f91;}.cls-2{fill:#1d4f91;}</style></defs><g id="Layer_2" data-name="Layer 2"><g id="Larger_Smaller_TEMPLATE_Trajan_Pro" data-name="Larger/Smaller TEMPLATE Trajan Pro"><g id="TEMPLATE_STARTER" data-name="TEMPLATE STARTER"><g id="Horizontal_Orientation" data-name="Horizontal Orientation"><g id="_2_Lines:_1_Large_Line_1_Small_Line" data-name="2 Lines: 1 Large Line; 1 Small Line"><rect id="Vertical_Bar_for_2_Lines:_1_Large_Line_1_Small_Line" data-name="Vertical Bar for 2 Lines: 1 Large Line; 1 Small Line" class="cls-1" x="246.67" width="1.2" height="45.34"/><path id="Columbia_Trademark" data-name="Columbia Trademark" class="cls-2" d="M76.87,31.38c-.26,0-.33.13-.42.65a5.4,5.4,0,0,1-1.1,2.14c-1.3,1.5-3.06,1.82-6,1.82C65,36,59.15,32.16,59.15,24.43c0-3.15.62-6.24,3-8.42a8.47,8.47,0,0,1,6.11-2c3,0,5.52.88,6.6,2a4.62,4.62,0,0,1,1.27,3c0,.46.07.72.32.72s.36-.26.39-.75c.07-.65,0-2.44.1-3.51s.16-1.53.16-1.79-.13-.36-.49-.39c-1-.1-2-.39-3.25-.55a32.28,32.28,0,0,0-4.71-.32c-4.84,0-7.93,1.3-10.27,3.44a12.23,12.23,0,0,0-3.81,8.91,12.26,12.26,0,0,0,4,9.59c3,2.57,6.7,3.54,11.15,3.54a18.73,18.73,0,0,0,5.85-.75,1.14,1.14,0,0,0,.85-.94,30.8,30.8,0,0,0,.72-4.33C77.16,31.61,77.09,31.38,76.87,31.38ZM92.49,16.47c-8.16,0-11.23,6-11.23,10.66,0,4.81,3.15,10.66,11,10.66,6.91,0,11.26-4.92,11.26-11.15S99.26,16.47,92.49,16.47Zm.87,20c-5.22,0-8.35-4.49-8.35-10.14,0-6.77,3.56-8.51,6.69-8.51,4.46,0,8,3.78,8,9.87C99.67,35.51,95.26,36.44,93.36,36.44Zm51.84-19.58c-1.06,0-2.78.08-3.1.08,0,0-1.74-.08-3.13-.08-.38,0-.57.05-.57.25s.16.24.46.24a5.45,5.45,0,0,1,1,.08c.9.19,1.11.63,1.17,1.55s.05,1.63.05,5.76v3.4c0,2.8-.08,5.25-1.58,6.74a5.32,5.32,0,0,1-3.75,1.47,5,5,0,0,1-3.4-1.12c-1.33-1.08-2.12-2.75-2.12-6.69V24.74c0-4.13,0-4.9.05-5.76s.27-1.42,1-1.55a4.21,4.21,0,0,1,.79-.08c.27,0,.43-.06.43-.24s-.19-.25-.6-.25c-1,0-2.69.08-3.34.08-.82,0-2.53-.08-4-.08-.41,0-.6.05-.6.25s.16.24.46.24a5.76,5.76,0,0,1,1.06.08c.9.19,1.11.63,1.17,1.55s.06,1.63.06,5.76v4c0,3.94,1,6,2.42,7.21a8.73,8.73,0,0,0,6,1.88,8.12,8.12,0,0,0,5.66-2c2.28-2,2.58-5.17,2.58-8.19V24.74c0-4.13,0-4.9.05-5.76s.27-1.42,1-1.55a4.21,4.21,0,0,1,.79-.08c.33,0,.49-.06.49-.24S145.57,16.85,145.19,16.85Zm60.63,20.07a11.82,11.82,0,0,1-1.39-.11c-.82-.11-1-.6-1.09-1.33-.11-1.17-.11-3.32-.11-6V24.74c0-4.13,0-4.9.05-5.76s.27-1.42,1-1.55a4.72,4.72,0,0,1,.82-.08c.27,0,.43-.06.43-.27s-.22-.22-.57-.22c-1,0-2.64.08-3.32.08s-2.5-.08-3.54-.08c-.43,0-.65.05-.65.22s.16.27.44.27a3.79,3.79,0,0,1,1,.11c.6.14.87.6.93,1.52s.05,1.63.05,5.76v4.79c0,2.64,0,4.79-.14,5.93-.08.79-.24,1.25-.79,1.36a4.54,4.54,0,0,1-1,.11c-.33,0-.44.08-.44.22s.19.27.54.27c1.09,0,2.8-.08,3.43-.08s2.45.08,4.24.08c.3,0,.52-.08.52-.27S206.12,36.93,205.82,36.93Zm-84.56-3.76c-.22,0-.27.17-.3.41a3.41,3.41,0,0,1-.71,1.63c-.68.73-1.74.76-3.18.76-2.12,0-2.83-.19-3.29-.6s-.57-2.36-.57-5.85V24.74c0-4.13,0-4.9.06-5.77s.27-1.41,1-1.55a7.47,7.47,0,0,1,1.06-.08c.33,0,.49-.06.49-.25s-.19-.25-.57-.25c-1.06,0-3,.09-3.7.09s-2.45-.09-3.73-.09c-.41,0-.6.05-.6.25s.16.25.46.25a4.17,4.17,0,0,1,.9.08c.9.19,1.12.63,1.17,1.55s.06,1.63.06,5.77v4.79c0,2.5,0,4.65-.14,5.79-.11.79-.24,1.39-.79,1.5a4.54,4.54,0,0,1-1,.11c-.33,0-.44.08-.44.22s.19.27.54.27c1.09,0,2.8-.08,3.43-.08,2.2,0,4,.16,7.91.16,1.41,0,1.55-.14,1.71-.73a21.41,21.41,0,0,0,.41-3.13C121.48,33.31,121.46,33.17,121.26,33.17Zm67.3-7.48c1.5-1.2,2.77-2.53,2.77-4.76,0-1.44-.87-4.08-5.79-4.08-.93,0-2,.08-3.32.08-.54,0-2.26-.08-3.7-.08-.41,0-.6.05-.6.25s.16.24.46.24a5.75,5.75,0,0,1,1.06.08c.9.19,1.12.63,1.17,1.55s.05,1.63.05,5.77v4.79c0,2.5,0,4.65-.14,5.79-.11.79-.25,1.39-.79,1.5a4.56,4.56,0,0,1-1,.11c-.33,0-.44.08-.44.22s.19.27.54.27c1.09,0,2.8-.08,3.43-.08.82,0,3.29.16,3.94.16,5,0,7.26-3,7.26-5.93C193.52,28.38,190.8,26.45,188.57,25.69Zm-4.62-7.21c0-.3.05-.41.25-.46a4.36,4.36,0,0,1,.9-.05c2.34,0,3.4,2.39,3.4,4.22a3.55,3.55,0,0,1-1.12,2.88,2.77,2.77,0,0,1-2,.52,6.68,6.68,0,0,1-1.28-.08c-.11,0-.19-.08-.19-.3Zm2.94,17.79a4.93,4.93,0,0,1-2-.33c-.87-.35-1-.82-1-2.61V26.89c0-.14.05-.19.16-.19.41,0,.68,0,1.17,0a3.89,3.89,0,0,1,2.26.65,6.48,6.48,0,0,1,2.64,5.41A3.17,3.17,0,0,1,186.88,36.27Zm-12,.65a5.43,5.43,0,0,1-1.69-.27c-.81-.24-1.09-1-1.33-2.75L169.4,17.1c-.08-.57-.24-.85-.49-.85s-.41.22-.6.65l-7.4,15.53L153.49,17.1c-.35-.71-.52-.85-.73-.85s-.38.25-.46.71L149.6,34.7c-.14.92-.35,2-1.12,2.15a3.41,3.41,0,0,1-.81.08c-.27,0-.44.05-.44.19s.22.3.49.3c.87,0,2.18-.09,2.69-.09s1.71.09,2.86.09c.41,0,.65-.06.65-.3s-.19-.19-.41-.19a5.26,5.26,0,0,1-1.14-.14c-.46-.11-.82-.35-.82-.87a10.58,10.58,0,0,1,.08-1.28l1.41-10.82h.11c1,2,2.58,5.46,2.83,6,.33.76,2.48,4.92,3.13,6.17.44.82.71,1.36,1,1.36s.38-.25,1-1.52L167,23.52h.11l1.63,12c.11.76,0,1.11-.14,1.17s-.3.16-.3.3.16.24.79.3c1.09.08,4.84.16,5.52.16.38,0,.71-.08.71-.3S175.14,36.93,174.89,36.93Zm55.64,0a6,6,0,0,1-1.14-.11c-.57-.13-1.36-.52-2.4-3-1.74-4.13-6.09-15.23-6.74-16.73-.27-.62-.43-.87-.68-.87s-.44.3-.76,1.09L212,34.42c-.54,1.36-1.06,2.28-2.31,2.45a7.59,7.59,0,0,1-.84.06c-.22,0-.33.05-.33.22s.16.27.52.27c1.41,0,2.91-.08,3.21-.08.85,0,2,.08,2.88.08.3,0,.46-.06.46-.27s-.08-.22-.41-.22h-.41c-.84,0-1.09-.36-1.09-.85a5.26,5.26,0,0,1,.41-1.66l1.47-3.89c.05-.16.11-.22.24-.22h6.07a.26.26,0,0,1,.27.19l2.18,5.77a.44.44,0,0,1-.25.63c-.27,0-.38.08-.38.24s.32.19.82.22c2.18.06,4.16.06,5.14.06s1.25-.06,1.25-.27S230.74,36.93,230.53,36.93Zm-9.19-8h-5c-.11,0-.14-.08-.11-.19l2.5-6.69c0-.11.08-.24.16-.24s.11.14.14.24l2.45,6.72C221.5,28.87,221.47,29,221.33,29ZM5.44,37.4H36.56V34.84H5.44ZM24.62,15.07a1.16,1.16,0,0,1-1.09-.26,6.8,6.8,0,0,0-.9-.62,3.18,3.18,0,0,0-1.13-5.88L22.66,6.8a.47.47,0,0,0,0-.54L21.21,4.38A.25.25,0,0,0,21,4.27a.26.26,0,0,0-.21.11L19.33,6.25a.46.46,0,0,0,0,.54L20.5,8.31a3.18,3.18,0,0,0-1.13,5.88,6.76,6.76,0,0,0-.9.62,1.16,1.16,0,0,1-1.09.26C10.76,13,4.9,10.91,1.58,14.17c-4,3.91.65,10.22,2.11,12.82a12.55,12.55,0,0,1,1.75,5.63H36.56A12.54,12.54,0,0,1,38.31,27c1.46-2.6,6.1-8.91,2.11-12.82C37.09,10.91,31.24,13,24.62,15.07Zm-8.36,15.4c-1.2.08-2.2-1-2.58-2.55l1-2.31a.58.58,0,0,0-.13-.66l-3.13-3.12c-.18-.18-.34-.18-.42,0L9.5,24.95a.59.59,0,0,0,.17.65L12,28c.49,1.86-.77,2.53-1.48,2.53C8,30.49,6.07,27.12,4,23.63S1.36,17.7,2.85,15.8c2.5-3.16,9.08-.66,14.19,1.67a5.5,5.5,0,0,0,.58,2.59C20.32,26.07,18.5,30.32,16.26,30.47ZM38,23.63c-2,3.49-4,6.86-6.48,6.86-.71,0-2-.67-1.48-2.53l2.34-2.36a.58.58,0,0,0,.17-.65L31,21.82c-.08-.18-.25-.18-.42,0l-3.13,3.12a.58.58,0,0,0-.13.66l1,2.31c-.38,1.52-1.37,2.64-2.58,2.55-2.24-.15-4.06-4.41-1.36-10.41A5.49,5.49,0,0,0,25,17.47c5.11-2.33,11.68-4.83,14.19-1.67C40.64,17.7,39.94,20.2,38,23.63Z"/></g><path class="cls-2" d="M264.74,10c-.35-.82-.6-1-1.14-1.14a2.31,2.31,0,0,0-.58-.06c-.13,0-.18,0-.18-.14s.17-.13.39-.13c.79,0,1.65,0,2.17,0s1.1,0,1.85,0c.18,0,.34,0,.34.13s-.09.14-.22.14a1.07,1.07,0,0,0-.58.1.36.36,0,0,0-.15.31,4.48,4.48,0,0,0,.35,1.15l2.58,6.81h.06c.65-1.65,2.6-6.48,3-7.47a1.84,1.84,0,0,0,.13-.56.29.29,0,0,0-.19-.29,2,2,0,0,0-.6-.07c-.13,0-.25,0-.25-.12s.14-.15.42-.15c.75,0,1.38,0,1.58,0s1,0,1.41,0c.2,0,.31,0,.31.13s-.09.14-.24.14a1.3,1.3,0,0,0-.73.18c-.2.14-.42.39-.83,1.35-.58,1.41-1,2.22-1.8,4.06-1,2.19-1.67,3.82-2,4.57s-.48,1.11-.69,1.11-.28-.21-.57-.92Z"/><path class="cls-2" d="M277.18,16.66c-.08,0-.09,0-.12.09l-.71,1.73a2.31,2.31,0,0,0-.19.78c0,.23.12.36.52.36h.19c.17,0,.2.06.2.14s-.08.13-.21.13c-.44,0-1.05,0-1.47,0-.13,0-.84,0-1.53,0-.17,0-.24,0-.24-.13a.13.13,0,0,1,.15-.14l.39,0c.6-.09.83-.48,1.1-1.12l3.45-8c.15-.36.25-.51.39-.51s.25.12.39.41c.31.71,2.52,5.86,3.36,7.8.51,1.15.89,1.32,1.13,1.36a3.21,3.21,0,0,0,.5,0q.18,0,.18.14c0,.1-.08.13-.57.13s-1.42,0-2.53,0c-.24,0-.39,0-.39-.1s0-.12.17-.14a.2.2,0,0,0,.12-.28l-1-2.58a.12.12,0,0,0-.13-.09ZM280,16c.06,0,.08,0,.06-.08l-1.25-3.19s0-.12-.06-.12-.06.08-.07.12l-1.27,3.18c0,.06,0,.09,0,.09Z"/><path class="cls-2" d="M294.89,19c0,.35,0,.36-.16.45a8,8,0,0,1-3.23.57c-3.24,0-6.1-1.47-6.1-5a4.72,4.72,0,0,1,2.31-4.17,6.61,6.61,0,0,1,3.56-.83,15.11,15.11,0,0,1,2.34.21,10.44,10.44,0,0,0,1,.14c.15,0,.18.06.18.15a17.24,17.24,0,0,0-.09,2.1c0,.19-.07.28-.18.28s-.12-.06-.14-.17a1.7,1.7,0,0,0-.45-1,4.09,4.09,0,0,0-2.87-1,3.7,3.7,0,0,0-2.55.75,3.71,3.71,0,0,0-1.21,3.1,4.43,4.43,0,0,0,4.59,4.74,2.16,2.16,0,0,0,.93-.13.42.42,0,0,0,.26-.45V17.59c0-.63,0-1.11,0-1.5s-.15-.57-.57-.69a2.39,2.39,0,0,0-.51,0c-.12,0-.21-.06-.21-.13s.1-.12.29-.12c.69,0,1.63,0,2,0l1.54,0c.18,0,.27,0,.27.12a.15.15,0,0,1-.17.13,1.81,1.81,0,0,0-.36,0c-.36.06-.5.24-.51.69s0,.9,0,1.53Z"/><path class="cls-2" d="M299.33,13.93c0-1.94,0-2.29,0-2.7s-.15-.57-.57-.69a2.44,2.44,0,0,0-.52,0c-.13,0-.22,0-.22-.13s.1-.12.3-.12c.69,0,1.53,0,1.9,0s3.34,0,3.6,0a5.48,5.48,0,0,0,.55-.07,1.53,1.53,0,0,1,.21-.06c.08,0,.09.06.09.12a5.6,5.6,0,0,0-.1.82c0,.14,0,.69-.08.84s0,.21-.15.21-.1-.06-.1-.17a1.2,1.2,0,0,0-.09-.47c-.11-.22-.21-.4-.87-.46-.23,0-1.8-.06-2.07-.06-.06,0-.09,0-.09.12v3.15c0,.08,0,.13.09.13.3,0,2,0,2.31,0a1,1,0,0,0,.63-.19c.1-.09.15-.17.21-.17a.12.12,0,0,1,.1.13c0,.08,0,.29-.1.93,0,.25-.06.76-.06.85s0,.28-.14.28-.12,0-.12-.1,0-.3,0-.46-.24-.45-.73-.5c-.24,0-1.74-.06-2.07-.06-.06,0-.08.06-.08.14v1c0,.44,0,1.51,0,1.89,0,.87.44,1.06,1.79,1.06a3.56,3.56,0,0,0,1.25-.17c.33-.15.48-.42.57-.94,0-.13.06-.19.15-.19s.12.17.12.3a8.6,8.6,0,0,1-.18,1.41c-.09.33-.21.33-.71.33-1,0-1.78,0-2.43,0l-1.53,0-.75,0-.92,0c-.17,0-.25,0-.25-.13s0-.14.21-.14a2,2,0,0,0,.46,0c.27-.06.34-.3.39-.67.06-.54.06-1.54.06-2.71Z"/><path class="cls-2" d="M310.19,16.18c0,1.63,0,2.44.29,2.68s.73.27,1.75.27c.71,0,1.21,0,1.54-.36a1.54,1.54,0,0,0,.33-.77c0-.12,0-.19.15-.19s.12.13.12.29a9.71,9.71,0,0,1-.19,1.47c-.09.29-.15.35-.84.35-.94,0-1.71,0-2.37,0l-1.75,0-.75,0-.92,0c-.17,0-.25,0-.25-.13s0-.14.21-.14a2,2,0,0,0,.46,0c.27-.06.34-.3.39-.67.06-.54.06-1.54.06-2.71V13.93c0-1.94,0-2.29,0-2.7s-.15-.57-.57-.69a1.77,1.77,0,0,0-.43,0c-.15,0-.23,0-.23-.13s.09-.12.29-.12c.61,0,1.45,0,1.81,0l1.91,0c.19,0,.28,0,.28.12s-.07.13-.24.13a3,3,0,0,0-.51,0c-.36.06-.46.24-.49.69s0,.77,0,2.7Z"/><path class="cls-2" d="M315.71,15.06c0-2.18,1.53-5,5.53-5,3.33,0,5.4,1.85,5.4,4.77s-2.13,5.22-5.53,5.22C317.27,20.05,315.71,17.32,315.71,15.06Zm9,.24c0-2.82-1.69-4.56-3.82-4.56-1.47,0-3.19.78-3.19,3.93,0,2.63,1.5,4.69,4,4.69C322.58,19.36,324.68,18.93,324.68,15.3Z"/><path class="cls-2" d="M329.59,19.72c-.21-.09-.25-.15-.25-.44,0-.69.06-1.48.07-1.69s.06-.33.17-.33.14.12.14.21a2.37,2.37,0,0,0,.12.66,2,2,0,0,0,2.1,1.26,1.65,1.65,0,0,0,1.83-1.62c0-.56-.14-1.11-1.31-1.8l-.76-.45c-1.56-.92-2.07-1.77-2.07-2.9,0-1.56,1.5-2.56,3.33-2.56a7.84,7.84,0,0,1,1.88.21c.12,0,.18.08.18.17s0,.52,0,1.53c0,.27-.06.4-.17.4s-.13-.08-.13-.23a1.44,1.44,0,0,0-.35-.84,1.77,1.77,0,0,0-1.47-.6c-.94,0-1.8.5-1.8,1.37,0,.57.21,1,1.4,1.68l.54.3c1.74,1,2.28,1.93,2.28,3.09a2.72,2.72,0,0,1-1.32,2.38,3.85,3.85,0,0,1-2.2.52A5.61,5.61,0,0,1,329.59,19.72Z"/><path class="cls-2" d="M344.93,18.46A5.66,5.66,0,0,1,343.07,14a5.64,5.64,0,0,1,1.75-4.11,6.54,6.54,0,0,1,4.74-1.59,14.85,14.85,0,0,1,2.17.15c.57.08,1,.21,1.5.25.17,0,.23.09.23.18s0,.3-.08.82,0,1.32,0,1.62,0,.34-.18.34-.15-.12-.15-.33a2.14,2.14,0,0,0-.58-1.38,4.48,4.48,0,0,0-3-.93,3.91,3.91,0,0,0-2.82.93,5,5,0,0,0-1.38,3.89,5,5,0,0,0,4.72,5.34c1.33,0,2.15-.15,2.75-.84a2.5,2.5,0,0,0,.51-1c0-.24.08-.3.2-.3s.13.11.13.23a14.27,14.27,0,0,1-.33,2,.53.53,0,0,1-.39.44,8.7,8.7,0,0,1-2.7.34A7.5,7.5,0,0,1,344.93,18.46Z"/><path class="cls-2" d="M355.72,15.06c0-2.18,1.53-5,5.54-5,3.33,0,5.4,1.85,5.4,4.77s-2.13,5.22-5.53,5.22C357.28,20.05,355.72,17.32,355.72,15.06Zm9,.24c0-2.82-1.69-4.56-3.82-4.56-1.47,0-3.19.78-3.19,3.93,0,2.63,1.5,4.69,4,4.69C362.59,19.36,364.69,18.93,364.69,15.3Z"/><path class="cls-2" d="M371.63,16.18c0,1.63,0,2.44.29,2.68s.73.27,1.75.27c.71,0,1.21,0,1.54-.36a1.54,1.54,0,0,0,.33-.77c0-.12,0-.19.15-.19s.12.13.12.29a9.71,9.71,0,0,1-.19,1.47c-.09.29-.15.35-.84.35-.94,0-1.71,0-2.37,0l-1.75,0-.75,0-.92,0c-.17,0-.25,0-.25-.13s0-.14.21-.14a2,2,0,0,0,.46,0c.27-.06.34-.3.39-.67.06-.54.06-1.54.06-2.71V13.93c0-1.94,0-2.29,0-2.7s-.15-.57-.57-.69a1.77,1.77,0,0,0-.43,0c-.15,0-.23,0-.23-.13s.09-.12.29-.12c.61,0,1.45,0,1.81,0l1.91,0c.19,0,.28,0,.28.12s-.07.13-.24.13a3,3,0,0,0-.51,0c-.36.06-.46.24-.49.69s0,.77,0,2.7Z"/><path class="cls-2" d="M380.66,16.18c0,1.63,0,2.44.29,2.68s.73.27,1.75.27c.71,0,1.21,0,1.54-.36a1.54,1.54,0,0,0,.33-.77c0-.12,0-.19.15-.19s.12.13.12.29a9.66,9.66,0,0,1-.2,1.47c-.09.29-.15.35-.84.35-.94,0-1.71,0-2.37,0l-1.75,0-.75,0-.92,0c-.17,0-.25,0-.25-.13s0-.14.21-.14a2,2,0,0,0,.46,0c.27-.06.34-.3.39-.67.06-.54.06-1.54.06-2.71V13.93c0-1.94,0-2.29,0-2.7s-.15-.57-.57-.69a1.77,1.77,0,0,0-.43,0c-.15,0-.23,0-.23-.13s.09-.12.28-.12c.62,0,1.46,0,1.81,0l1.91,0c.19,0,.28,0,.28.12s-.07.13-.24.13a3,3,0,0,0-.51,0c-.36.06-.46.24-.49.69s0,.77,0,2.7Z"/><path class="cls-2" d="M387.92,13.93c0-1.94,0-2.29,0-2.7s-.15-.57-.57-.69a2.44,2.44,0,0,0-.52,0c-.13,0-.22,0-.22-.13s.1-.12.3-.12c.69,0,1.53,0,1.9,0s3.34,0,3.6,0a5.48,5.48,0,0,0,.55-.07,1.53,1.53,0,0,1,.21-.06c.08,0,.09.06.09.12a5.6,5.6,0,0,0-.1.82c0,.14,0,.69-.08.84s0,.21-.15.21-.1-.06-.1-.17a1.2,1.2,0,0,0-.09-.47c-.11-.22-.21-.4-.87-.46-.23,0-1.8-.06-2.07-.06-.06,0-.09,0-.09.12v3.15c0,.08,0,.13.09.13.3,0,2,0,2.31,0a1,1,0,0,0,.63-.19c.1-.09.15-.17.21-.17a.12.12,0,0,1,.1.13c0,.08,0,.29-.1.93,0,.25-.06.76-.06.85s0,.28-.14.28-.12,0-.12-.1,0-.3,0-.46-.24-.45-.73-.5c-.24,0-1.74-.06-2.07-.06-.06,0-.08.06-.08.14v1c0,.44,0,1.51,0,1.89,0,.87.44,1.06,1.79,1.06a3.56,3.56,0,0,0,1.25-.17c.33-.15.48-.42.57-.94,0-.13.06-.19.15-.19s.12.17.12.3a8.6,8.6,0,0,1-.18,1.41c-.09.33-.21.33-.71.33-1,0-1.78,0-2.43,0l-1.53,0-.75,0-.92,0c-.17,0-.25,0-.25-.13s0-.14.21-.14a2,2,0,0,0,.46,0c.27-.06.34-.3.39-.67.06-.54.06-1.54.06-2.71Z"/><path class="cls-2" d="M405.37,19c0,.35,0,.36-.17.45a8,8,0,0,1-3.22.57c-3.24,0-6.1-1.47-6.1-5a4.72,4.72,0,0,1,2.31-4.17,6.61,6.61,0,0,1,3.55-.83,15.09,15.09,0,0,1,2.34.21,10.48,10.48,0,0,0,1,.14c.15,0,.18.06.18.15a17.33,17.33,0,0,0-.09,2.1c0,.19-.08.28-.18.28s-.12-.06-.13-.17a1.69,1.69,0,0,0-.45-1,4.09,4.09,0,0,0-2.86-1,3.7,3.7,0,0,0-2.55.75,3.71,3.71,0,0,0-1.21,3.1,4.43,4.43,0,0,0,4.59,4.74,2.17,2.17,0,0,0,.93-.13.42.42,0,0,0,.25-.45V17.59c0-.63,0-1.11,0-1.5s-.15-.57-.57-.69a2.39,2.39,0,0,0-.51,0c-.12,0-.21-.06-.21-.13s.1-.12.28-.12c.69,0,1.64,0,2,0l1.54,0c.18,0,.27,0,.27.12a.15.15,0,0,1-.17.13,1.81,1.81,0,0,0-.36,0c-.36.06-.5.24-.51.69s0,.9,0,1.53Z"/><path class="cls-2" d="M409.81,13.93c0-1.94,0-2.29,0-2.7s-.15-.57-.57-.69a2.45,2.45,0,0,0-.53,0c-.13,0-.22,0-.22-.13s.1-.12.3-.12c.69,0,1.53,0,1.91,0s3.34,0,3.6,0a5.43,5.43,0,0,0,.55-.07,1.55,1.55,0,0,1,.21-.06c.08,0,.09.06.09.12a5.74,5.74,0,0,0-.1.82c0,.14,0,.69-.08.84s0,.21-.15.21-.1-.06-.1-.17a1.19,1.19,0,0,0-.09-.47c-.11-.22-.21-.4-.87-.46-.22,0-1.8-.06-2.07-.06-.06,0-.09,0-.09.12v3.15c0,.08,0,.13.09.13.3,0,2,0,2.31,0a1,1,0,0,0,.63-.19c.1-.09.15-.17.21-.17a.12.12,0,0,1,.1.13c0,.08,0,.29-.1.93,0,.25-.06.76-.06.85s0,.28-.13.28-.12,0-.12-.1,0-.3,0-.46-.24-.45-.73-.5c-.24,0-1.74-.06-2.07-.06-.06,0-.08.06-.08.14v1c0,.44,0,1.51,0,1.89,0,.87.44,1.06,1.79,1.06a3.56,3.56,0,0,0,1.25-.17c.33-.15.48-.42.57-.94,0-.13.06-.19.15-.19s.12.17.12.3a8.71,8.71,0,0,1-.18,1.41c-.09.33-.21.33-.71.33-1,0-1.79,0-2.43,0l-1.53,0-.75,0-.92,0c-.17,0-.25,0-.25-.13s0-.14.21-.14a2,2,0,0,0,.46,0c.27-.06.34-.3.39-.67.06-.54.06-1.54.06-2.71Z"/><path class="cls-2" d="M423,15.06c0-2.18,1.53-5,5.54-5,3.33,0,5.4,1.85,5.4,4.77s-2.13,5.22-5.53,5.22C424.57,20.05,423,17.32,423,15.06Zm9,.24c0-2.82-1.69-4.56-3.82-4.56-1.47,0-3.2.78-3.2,3.93,0,2.63,1.5,4.69,4,4.69C429.88,19.36,432,18.93,432,15.3Z"/><path class="cls-2" d="M438.92,16.23c0,1.23,0,2.13.08,2.67,0,.38.13.61.53.67a4.69,4.69,0,0,0,.64,0c.17,0,.22.08.22.14s-.09.13-.28.13c-.84,0-1.77,0-2.12,0s-1.19,0-1.68,0c-.18,0-.27,0-.27-.13s0-.14.2-.14a2,2,0,0,0,.46,0c.27-.06.34-.3.39-.67.06-.54.06-1.48.06-2.71V13.93c0-1.94,0-2.29,0-2.7s-.15-.58-.57-.69a2.45,2.45,0,0,0-.53,0c-.12,0-.22,0-.22-.13s.1-.12.31-.12c.67,0,1.52,0,1.89,0s3.43,0,3.75,0a3.63,3.63,0,0,0,.54-.06c.08,0,.14-.08.21-.08s.09.06.09.12-.06.24-.11.57c0,.13,0,.88-.06,1s0,.25-.14.25-.17-.06-.17-.21a1,1,0,0,0-.07-.48.91.91,0,0,0-.84-.39L439,11c-.08,0-.12,0-.12.18v3.09c0,.07,0,.12.09.12h1.85c.22,0,.4,0,.6,0a.68.68,0,0,0,.55-.23c.08-.07.11-.13.18-.13s.08,0,.08.12-.06.42-.1.83,0,.84,0,.93,0,.28-.15.28-.12-.09-.12-.18a1.16,1.16,0,0,0-.09-.39.67.67,0,0,0-.63-.46c-.33,0-1.89,0-2.12,0-.06,0-.09,0-.09.1Z"/><path class="cls-2" d="M266.12,30.65c0-2.28,0-2.7,0-3.18s-.15-.75-.64-.85a3.06,3.06,0,0,0-.58,0c-.17,0-.26,0-.26-.14s.1-.13.33-.13c.79,0,1.74,0,2.16,0,.61,0,1.48,0,2.17,0a3.65,3.65,0,0,1,2.79.85,2.6,2.6,0,0,1,.75,1.78,3.53,3.53,0,0,1-3.69,3.63,2.19,2.19,0,0,1-.31,0c-.08,0-.18,0-.18-.13s.1-.17.42-.17a2.36,2.36,0,0,0,2-2.47,2.89,2.89,0,0,0-.88-2.25,2.23,2.23,0,0,0-1.5-.58,2.1,2.1,0,0,0-.58.06c-.08,0-.12.12-.12.28v6c0,1.38,0,2.56.08,3.21,0,.42.13.75.58.81a6.26,6.26,0,0,0,.77.06c.16,0,.24,0,.24.12s-.12.15-.29.15c-1,0-1.93,0-2.32,0s-1.29,0-1.89,0c-.19,0-.3,0-.3-.15s.06-.12.24-.12a2.43,2.43,0,0,0,.54-.06c.3-.06.38-.39.44-.82.08-.63.08-1.81.08-3.19Z"/><path class="cls-2" d="M283.24,32.15s.08,0,.08-.09v-.27c0-1.94,0-2.4,0-2.81s-.15-.57-.57-.69a2.39,2.39,0,0,0-.51,0c-.15,0-.23,0-.23-.13s.09-.12.29-.12c.7,0,1.63,0,2,0l1.7,0c.19,0,.28,0,.28.12s-.09.13-.24.13a2.23,2.23,0,0,0-.39,0c-.34.06-.45.24-.48.69s0,.77,0,2.7v2.25c0,1.17,0,2.17.06,2.73,0,.36.12.6.52.66a4.81,4.81,0,0,0,.67,0c.13,0,.21.08.21.14s-.1.13-.27.13c-.85,0-1.73,0-2.08,0s-1.23,0-1.74,0c-.18,0-.29,0-.29-.13s.06-.14.21-.14a2,2,0,0,0,.48,0c.27-.06.35-.3.39-.67.06-.54.06-1.52.06-2.69V33a.08.08,0,0,0-.08-.07h-5s-.09,0-.09.07v1c0,1.17,0,2.15.08,2.7,0,.36.12.6.51.66a5,5,0,0,0,.68,0c.15,0,.21.08.21.14s-.1.13-.27.13c-.85,0-1.77,0-2.15,0s-1.17,0-1.69,0c-.17,0-.25,0-.25-.13s0-.14.21-.14a2,2,0,0,0,.46,0c.27-.06.34-.3.39-.67.06-.54.06-1.54.06-2.71V31.68c0-1.94,0-2.29,0-2.7s-.15-.57-.57-.69a2.44,2.44,0,0,0-.52,0c-.13,0-.22,0-.22-.13s.1-.12.28-.12c.71,0,1.58,0,1.94,0L279,28c.18,0,.27,0,.27.12s-.08.13-.24.13a2,2,0,0,0-.37,0c-.36.06-.46.24-.49.69s0,.87,0,2.81v.27a.08.08,0,0,0,.09.09Z"/><path class="cls-2" d="M291.58,34.32a2.54,2.54,0,0,0-.3-1.33c-.09-.19-1.89-3-2.35-3.67a2.92,2.92,0,0,0-.85-.9,1.31,1.31,0,0,0-.56-.17c-.1,0-.19,0-.19-.13s.09-.12.25-.12l1.65,0c.29,0,.9,0,1.5,0,.12,0,.19,0,.19.12s-.09.1-.3.17-.18.09-.18.19a1,1,0,0,0,.17.44c.24.39,2,3.37,2.19,3.73.17-.3,1.77-3,2-3.42a1.68,1.68,0,0,0,.19-.67c0-.12-.06-.24-.28-.29s-.24,0-.24-.15.08-.12.23-.12c.44,0,.9,0,1.29,0l1.41,0c.15,0,.24,0,.24.1s-.1.15-.25.15a1.61,1.61,0,0,0-.57.15,1.77,1.77,0,0,0-.69.6,42.84,42.84,0,0,0-2.56,4.08,3,3,0,0,0-.17,1.27v1c0,.21,0,.73,0,1.27,0,.38.15.61.54.67a5.08,5.08,0,0,0,.66,0c.15,0,.22.08.22.14s-.1.13-.28.13c-.83,0-1.71,0-2.07,0s-1.21,0-1.71,0c-.18,0-.29,0-.29-.13s.06-.14.21-.14a2,2,0,0,0,.46,0c.27-.06.38-.3.41-.67,0-.54,0-1.06,0-1.27Z"/><path class="cls-2" d="M299,37.47c-.21-.09-.25-.15-.25-.44,0-.69.06-1.48.07-1.69s.06-.33.17-.33.14.12.14.21a2.39,2.39,0,0,0,.12.66,2,2,0,0,0,2.1,1.26,1.65,1.65,0,0,0,1.83-1.62c0-.56-.14-1.11-1.31-1.8l-.76-.45c-1.56-.92-2.07-1.77-2.07-2.9,0-1.56,1.5-2.56,3.33-2.56a7.84,7.84,0,0,1,1.88.21c.12,0,.18.08.18.17s0,.52,0,1.53c0,.27-.06.4-.17.4s-.13-.08-.13-.23a1.44,1.44,0,0,0-.35-.84,1.77,1.77,0,0,0-1.47-.6c-.94,0-1.8.5-1.8,1.37,0,.57.21,1,1.4,1.68l.54.3c1.74,1,2.28,1.93,2.28,3.09a2.72,2.72,0,0,1-1.32,2.38,3.85,3.85,0,0,1-2.2.52A5.61,5.61,0,0,1,299,37.47Z"/><path class="cls-2" d="M308.3,31.68c0-1.94,0-2.29,0-2.7s-.17-.58-.45-.67a1.69,1.69,0,0,0-.48-.06c-.13,0-.21,0-.21-.15s.1-.1.31-.1l1.77,0,1.69,0c.17,0,.27,0,.27.1s-.07.15-.21.15a1.85,1.85,0,0,0-.39,0c-.36.06-.46.24-.49.69s0,.77,0,2.7v2.25c0,1.23,0,2.25.06,2.79,0,.35.14.54.52.6a5,5,0,0,0,.68,0c.15,0,.21.08.21.14s-.1.13-.25.13c-.87,0-1.77,0-2.13,0s-1.2,0-1.72,0c-.17,0-.25,0-.25-.13s0-.14.21-.14a2,2,0,0,0,.46,0c.27-.06.34-.24.39-.61.06-.53.06-1.54.06-2.77Z"/><path class="cls-2" d="M315.22,36.42a4.92,4.92,0,0,1-.1-7.26,6,6,0,0,1,4.18-1.35,13.51,13.51,0,0,1,1.92.14c.5.07.93.17,1.32.21.15,0,.2.08.2.15s0,.25-.06.71,0,1.13,0,1.38-.06.31-.18.31-.13-.1-.13-.27a1.8,1.8,0,0,0-.51-1.19,3.74,3.74,0,0,0-2.55-.75,3.55,3.55,0,0,0-2.49.72,4.14,4.14,0,0,0-1.22,3.31A4.25,4.25,0,0,0,319.66,37c1.17,0,1.81-.09,2.34-.67a2.06,2.06,0,0,0,.45-.85c0-.2.06-.26.17-.26s.15.12.15.23a11.25,11.25,0,0,1-.29,1.69.45.45,0,0,1-.34.38,7.74,7.74,0,0,1-2.38.29A6.78,6.78,0,0,1,315.22,36.42Z"/><path class="cls-2" d="M326.33,31.68c0-1.94,0-2.29,0-2.7s-.17-.58-.45-.67a1.69,1.69,0,0,0-.48-.06c-.13,0-.21,0-.21-.15s.1-.1.31-.1l1.77,0L329,28c.17,0,.27,0,.27.1s-.07.15-.21.15a1.85,1.85,0,0,0-.39,0c-.36.06-.46.24-.49.69s0,.77,0,2.7v2.25c0,1.23,0,2.25.06,2.79,0,.35.14.54.52.6a5,5,0,0,0,.68,0c.15,0,.21.08.21.14s-.1.13-.25.13c-.87,0-1.77,0-2.13,0s-1.2,0-1.72,0c-.17,0-.25,0-.25-.13s0-.14.21-.14a2,2,0,0,0,.46,0c.27-.06.34-.24.39-.61.06-.53.06-1.54.06-2.77Z"/><path class="cls-2" d="M333.76,34.41c-.08,0-.09,0-.12.09l-.71,1.73a2.31,2.31,0,0,0-.19.78c0,.23.12.36.52.36h.19c.17,0,.2.06.2.14s-.08.13-.21.13c-.44,0-1.05,0-1.47,0-.13,0-.84,0-1.53,0-.17,0-.24,0-.24-.13a.13.13,0,0,1,.15-.14l.39,0c.6-.09.83-.48,1.1-1.12l3.45-8c.15-.36.25-.51.39-.51s.25.12.39.41c.32.71,2.52,5.86,3.36,7.8.51,1.15.88,1.32,1.12,1.36a3.21,3.21,0,0,0,.5,0q.18,0,.18.14c0,.1-.08.13-.57.13s-1.42,0-2.53,0c-.24,0-.39,0-.39-.1s0-.12.17-.14a.2.2,0,0,0,.12-.28l-1-2.58a.12.12,0,0,0-.13-.09Zm2.82-.71c.06,0,.08,0,.06-.08l-1.25-3.19s0-.12-.06-.12-.06.08-.07.12L334,33.62c0,.06,0,.09,0,.09Z"/><path class="cls-2" d="M344.24,35.9c0,1,.19,1.29.45,1.38a2.25,2.25,0,0,0,.69.09c.15,0,.22.06.22.14s-.12.13-.3.13c-.85,0-1.47,0-1.71,0s-.75,0-1.42,0c-.18,0-.3,0-.3-.13s.09-.14.21-.14a2.72,2.72,0,0,0,.6-.06c.35-.09.39-.43.41-1.54l.12-7.56c0-.25.09-.44.23-.44s.35.2.57.42,2.14,2.19,4.06,4.06c.9.89,2.66,2.69,2.85,2.86H351l-.14-5.67c0-.78-.13-1-.45-1.12a2.21,2.21,0,0,0-.69-.08c-.17,0-.21-.06-.21-.13s.13-.12.33-.12c.69,0,1.4,0,1.68,0s.65,0,1.29,0c.18,0,.3,0,.3.12s-.08.13-.23.13a1.34,1.34,0,0,0-.4,0c-.36.1-.46.33-.48,1.05l-.15,8c0,.29-.1.4-.21.4a.78.78,0,0,1-.54-.27c-.83-.76-2.48-2.34-3.85-3.67s-2.83-2.92-3.09-3.15h0Z"/><path class="cls-2" d="M356.06,37.47c-.21-.09-.25-.15-.25-.44,0-.69.06-1.48.07-1.69s.06-.33.17-.33.14.12.14.21a2.37,2.37,0,0,0,.12.66,2,2,0,0,0,2.1,1.26,1.65,1.65,0,0,0,1.83-1.62c0-.56-.14-1.11-1.31-1.8l-.76-.45c-1.56-.92-2.07-1.77-2.07-2.9,0-1.56,1.5-2.56,3.33-2.56a7.84,7.84,0,0,1,1.88.21c.12,0,.18.08.18.17s0,.52,0,1.53c0,.27-.06.4-.17.4s-.13-.08-.13-.23a1.44,1.44,0,0,0-.35-.84,1.77,1.77,0,0,0-1.47-.6c-.94,0-1.8.5-1.8,1.37,0,.57.21,1,1.4,1.68l.54.3c1.74,1,2.28,1.93,2.28,3.09a2.72,2.72,0,0,1-1.32,2.38,3.85,3.85,0,0,1-2.2.52A5.61,5.61,0,0,1,356.06,37.47Z"/><path class="cls-2" d="M371.45,34.41c-.08,0-.09,0-.12.09l-.71,1.73a2.31,2.31,0,0,0-.19.78c0,.23.12.36.52.36h.19c.17,0,.2.06.2.14s-.08.13-.21.13c-.44,0-1.05,0-1.47,0-.13,0-.84,0-1.53,0-.17,0-.24,0-.24-.13a.13.13,0,0,1,.15-.14l.39,0c.6-.09.83-.48,1.1-1.12l3.45-8c.15-.36.25-.51.39-.51s.25.12.39.41c.32.71,2.52,5.86,3.36,7.8.51,1.15.88,1.32,1.12,1.36a3.21,3.21,0,0,0,.5,0q.18,0,.18.14c0,.1-.08.13-.57.13s-1.42,0-2.53,0c-.24,0-.39,0-.39-.1s0-.12.17-.14a.2.2,0,0,0,.12-.28l-1-2.58a.12.12,0,0,0-.13-.09Zm2.82-.71c.06,0,.08,0,.06-.08l-1.25-3.19s0-.12-.06-.12-.06.08-.07.12l-1.27,3.18c0,.06,0,.09,0,.09Z"/><path class="cls-2" d="M381.94,35.9c0,1,.19,1.29.45,1.38a2.25,2.25,0,0,0,.69.09c.15,0,.22.06.22.14s-.12.13-.3.13c-.85,0-1.47,0-1.71,0s-.75,0-1.42,0c-.18,0-.3,0-.3-.13s.09-.14.21-.14a2.72,2.72,0,0,0,.6-.06c.35-.09.39-.43.41-1.54l.12-7.56c0-.25.09-.44.23-.44s.35.2.57.42,2.14,2.19,4.06,4.06c.9.89,2.66,2.69,2.85,2.86h.06l-.14-5.67c0-.78-.13-1-.45-1.12a2.21,2.21,0,0,0-.69-.08c-.17,0-.21-.06-.21-.13s.13-.12.33-.12c.69,0,1.4,0,1.68,0s.65,0,1.29,0c.18,0,.3,0,.3.12s-.07.13-.23.13a1.34,1.34,0,0,0-.4,0c-.36.1-.46.33-.48,1.05l-.15,8c0,.29-.1.4-.21.4a.78.78,0,0,1-.54-.27c-.83-.76-2.48-2.34-3.85-3.67s-2.83-2.92-3.09-3.15h0Z"/><path class="cls-2" d="M394.48,31.68c0-1.94,0-2.29,0-2.7s-.15-.57-.57-.69a2.44,2.44,0,0,0-.52,0c-.13,0-.22,0-.22-.13s.1-.12.3-.12c.69,0,1.53,0,1.9,0s1.35,0,2.15,0c1.65,0,3.87,0,5.31,1.46A4.46,4.46,0,0,1,404,32.69a4.94,4.94,0,0,1-1.44,3.55,6.15,6.15,0,0,1-4.42,1.5c-.48,0-1,0-1.57-.07s-1-.08-1.33-.08l-.75,0-.92,0c-.17,0-.25,0-.25-.13s0-.14.21-.14a2,2,0,0,0,.46,0c.27-.06.34-.3.39-.67.06-.54.06-1.54.06-2.71Zm1.77,1.41c0,1.35,0,2.33,0,2.58a2.32,2.32,0,0,0,.15.9c.17.24.69.51,1.73.51a4.16,4.16,0,0,0,2.88-.87A3.89,3.89,0,0,0,402.16,33a4.15,4.15,0,0,0-1.23-3.18,5.32,5.32,0,0,0-3.69-1.21,2.8,2.8,0,0,0-.81.09.22.22,0,0,0-.17.25c0,.44,0,1.48,0,2.49Z"/><path class="cls-2" d="M412.42,37.46c-.24-.11-.29-.18-.29-.51,0-.82.06-1.73.08-2s.06-.39.18-.39.15.14.15.25a3.15,3.15,0,0,0,.13.77,2.07,2.07,0,0,0,2.15,1.52,1.82,1.82,0,0,0,2-1.71c0-.73-.23-1.42-1.47-2.4l-.69-.54c-1.65-1.29-2.22-2.34-2.22-3.55,0-1.65,1.38-2.83,3.46-2.83a7.27,7.27,0,0,1,2,.25c.13,0,.21.08.21.18s-.06.63-.06,1.8c0,.33,0,.45-.17.45s-.15-.09-.15-.27a1.82,1.82,0,0,0-.39-1,1.9,1.9,0,0,0-1.63-.73,1.58,1.58,0,0,0-1.79,1.54c0,.69.35,1.21,1.59,2.16l.42.31c1.81,1.37,2.46,2.4,2.46,3.83A3,3,0,0,1,417,37.23a4.33,4.33,0,0,1-2.38.61A5.21,5.21,0,0,1,412.42,37.46Z"/><path class="cls-2" d="M421.85,31.68c0-1.94,0-2.29,0-2.7s-.15-.57-.57-.69a2.39,2.39,0,0,0-.51,0q-.23,0-.23-.13c0-.09.09-.12.29-.12.71,0,1.59,0,2,0l1.69,0c.2,0,.29,0,.29.12s-.08.13-.21.13a1.85,1.85,0,0,0-.39,0c-.34.06-.45.24-.48.69s0,.77,0,2.7v1.78c0,1.86.36,2.58,1,3.09a2.8,2.8,0,0,0,3.43-.17c.74-.69.76-1.8.76-3.1v-1.6c0-1.94,0-2.29,0-2.7s-.14-.57-.56-.69a2.28,2.28,0,0,0-.48,0q-.23,0-.23-.13c0-.09.09-.12.27-.12.67,0,1.56,0,1.58,0L431,28c.18,0,.27,0,.27.12s-.08.13-.22.13a1.85,1.85,0,0,0-.39,0c-.36.06-.45.24-.48.69s0,.77,0,2.7V33c0,1.42-.15,2.92-1.26,3.84a4.11,4.11,0,0,1-2.79.92,4.56,4.56,0,0,1-3-.87,4.09,4.09,0,0,1-1.2-3.37Z"/><path class="cls-2" d="M434.27,31.68c0-1.94,0-2.29,0-2.7s-.15-.57-.57-.69a2.45,2.45,0,0,0-.53,0c-.13,0-.22,0-.22-.13s.1-.12.3-.12c.69,0,1.53,0,1.8,0l2.05,0a4.62,4.62,0,0,1,2.5.54,2.23,2.23,0,0,1,.93,1.75c0,.94-.54,1.79-1.83,2.82,1.17,1.44,2.1,2.59,2.89,3.39a2.48,2.48,0,0,0,1.41.84,1.24,1.24,0,0,0,.31,0,.15.15,0,0,1,.17.14c0,.1-.09.13-.25.13H442a2.86,2.86,0,0,1-1.44-.25,6,6,0,0,1-1.8-1.87c-.52-.69-1.08-1.54-1.24-1.74a.3.3,0,0,0-.24-.09l-1.18,0a.09.09,0,0,0-.11.1v.18c0,1.18,0,2.17.08,2.71,0,.38.1.61.51.67a5.05,5.05,0,0,0,.64,0,.15.15,0,0,1,.17.14c0,.09-.1.13-.27.13-.76,0-1.86,0-2.05,0s-1.1,0-1.62,0c-.17,0-.25,0-.25-.13s0-.14.21-.14a2,2,0,0,0,.46,0c.27-.06.34-.3.39-.67.06-.54.06-1.54.06-2.71Zm1.68,1c0,.14,0,.18.12.23a3.63,3.63,0,0,0,1,.12,1.32,1.32,0,0,0,.93-.21,2.16,2.16,0,0,0,.86-1.89,2,2,0,0,0-2-2.26,4.75,4.75,0,0,0-.78,0c-.09,0-.12.07-.12.18Z"/><path class="cls-2" d="M453.29,36.78c0,.35,0,.36-.17.45a8,8,0,0,1-3.22.57c-3.24,0-6.11-1.47-6.11-5a4.72,4.72,0,0,1,2.31-4.17,6.61,6.61,0,0,1,3.55-.83A15.11,15.11,0,0,1,452,28a10.4,10.4,0,0,0,1,.14c.15,0,.18.06.18.15a17.33,17.33,0,0,0-.09,2.1c0,.19-.08.28-.18.28s-.12-.06-.13-.17a1.7,1.7,0,0,0-.45-1,4.09,4.09,0,0,0-2.87-1,3.41,3.41,0,0,0-3.76,3.85,4.42,4.42,0,0,0,4.59,4.74,2.16,2.16,0,0,0,.93-.13.42.42,0,0,0,.25-.45V35.34c0-.63,0-1.11,0-1.5s-.15-.57-.57-.69a2.39,2.39,0,0,0-.51,0c-.12,0-.21-.06-.21-.13s.11-.12.29-.12c.69,0,1.63,0,2,0l1.54,0c.18,0,.27,0,.27.12a.15.15,0,0,1-.17.13,1.82,1.82,0,0,0-.36,0c-.36.06-.5.24-.51.69s0,.9,0,1.53Z"/><path class="cls-2" d="M457.73,31.68c0-1.94,0-2.29,0-2.7s-.15-.57-.57-.69a2.45,2.45,0,0,0-.53,0c-.13,0-.22,0-.22-.13s.1-.12.3-.12c.69,0,1.53,0,1.91,0s3.34,0,3.6,0a5.43,5.43,0,0,0,.55-.07,1.55,1.55,0,0,1,.21-.06c.08,0,.09.06.09.12a5.74,5.74,0,0,0-.1.82c0,.14,0,.69-.08.84s0,.21-.15.21-.1-.06-.1-.17a1.19,1.19,0,0,0-.09-.47c-.11-.22-.21-.4-.87-.46-.22,0-1.8-.06-2.07-.06-.06,0-.09,0-.09.12V32c0,.08,0,.13.09.13.3,0,2,0,2.31,0a1,1,0,0,0,.63-.19c.1-.09.15-.17.21-.17a.12.12,0,0,1,.1.13c0,.08,0,.29-.1.93,0,.25-.06.76-.06.85s0,.28-.13.28-.12,0-.12-.1,0-.3,0-.46-.24-.45-.73-.5c-.24,0-1.74-.06-2.07-.06-.06,0-.08.06-.08.14v1c0,.44,0,1.51,0,1.89,0,.87.44,1.06,1.79,1.06a3.56,3.56,0,0,0,1.25-.17c.33-.15.48-.42.57-.94,0-.13.06-.19.15-.19s.12.17.12.3a8.71,8.71,0,0,1-.18,1.41c-.09.33-.21.33-.71.33-1,0-1.79,0-2.43,0l-1.53,0-.75,0-.92,0c-.17,0-.25,0-.25-.13s0-.14.21-.14a2,2,0,0,0,.46,0c.27-.06.34-.3.39-.67.06-.54.06-1.54.06-2.71Z"/><path class="cls-2" d="M465.68,32.81c0-2.18,1.53-5,5.54-5,3.33,0,5.4,1.85,5.4,4.77s-2.13,5.22-5.53,5.22C467.24,37.8,465.68,35.07,465.68,32.81Zm9,.24c0-2.82-1.69-4.56-3.82-4.56-1.47,0-3.2.78-3.2,3.93,0,2.63,1.5,4.69,4,4.69C472.55,37.11,474.65,36.68,474.65,33Z"/><path class="cls-2" d="M480.65,35.9c0,1,.19,1.29.45,1.38a2.25,2.25,0,0,0,.69.09c.15,0,.22.06.22.14s-.12.13-.3.13c-.85,0-1.47,0-1.71,0s-.75,0-1.42,0c-.18,0-.3,0-.3-.13s.09-.14.21-.14a2.72,2.72,0,0,0,.6-.06c.34-.09.39-.43.41-1.54l.12-7.56c0-.25.09-.44.22-.44s.34.2.57.42,2.14,2.19,4.06,4.06c.9.89,2.66,2.69,2.85,2.86h.06l-.13-5.67c0-.78-.14-1-.45-1.12a2.21,2.21,0,0,0-.69-.08c-.17,0-.21-.06-.21-.13s.14-.12.33-.12c.69,0,1.4,0,1.68,0s.65,0,1.29,0c.18,0,.3,0,.3.12s-.08.13-.23.13a1.34,1.34,0,0,0-.41,0c-.36.1-.46.33-.48,1.05l-.15,8c0,.29-.1.4-.21.4a.79.79,0,0,1-.54-.27c-.82-.76-2.47-2.34-3.85-3.67s-2.83-2.92-3.09-3.15h0Z"/><path class="cls-2" d="M492.47,37.47c-.21-.09-.26-.15-.26-.44,0-.69.06-1.48.08-1.69s.06-.33.17-.33.13.12.13.21a2.37,2.37,0,0,0,.12.66,2,2,0,0,0,2.1,1.26,1.65,1.65,0,0,0,1.83-1.62c0-.56-.13-1.11-1.3-1.8l-.76-.45c-1.56-.92-2.07-1.77-2.07-2.9,0-1.56,1.5-2.56,3.33-2.56a7.84,7.84,0,0,1,1.88.21c.12,0,.18.08.18.17s0,.52,0,1.53c0,.27-.06.4-.17.4s-.13-.08-.13-.23a1.44,1.44,0,0,0-.34-.84,1.78,1.78,0,0,0-1.47-.6c-.94,0-1.8.5-1.8,1.37,0,.57.21,1,1.4,1.68l.54.3c1.74,1,2.28,1.93,2.28,3.09a2.72,2.72,0,0,1-1.32,2.38,3.85,3.85,0,0,1-2.21.52A5.61,5.61,0,0,1,492.47,37.47Z"/></g></g></g></g></svg>